<?xml version="1.0" encoding="UTF-8" standalone="no"?> <svg id="Layer_1" data-name="Layer 1" xmlns="http://www.w3.org/2000/svg" width="24" height="24" viewBox="0 0 25 25"><title>Video Play</title><path id="Video_Play" data-name="Video Play" d="M12.5,0A12.5,12.5,0,1,0,25,12.5,12.52,12.52,0,0,0,12.5,0Zm5.26,12.92-8,5A.56.56,0,0,1,9.5,18a.5.5,0,0,1-.24-.06A.51.51,0,0,1,9,17.5V7.5a.51.51,0,0,1,.26-.44.49.49,0,0,1,.51,0l8,5a.49.49,0,0,1,0,.84Z" fill="url(#paint0_linear_1_6)"/><defs>
<linearGradient id="paint0_linear_1_6" x1="12" y1="0" x2="12" y2="24" gradientUnits="userSpaceOnUse">
<stop offset="0.296875" stop-color="#6822A9"/>
<stop offset="0.71875" stop-color="#1C0036"/>
</linearGradient>
</defs></svg>