<svg width="274" height="257" viewBox="0 0 274 257" fill="none" xmlns="http://www.w3.org/2000/svg">
<path d="M258.36 256.24C254.547 256.24 250.56 253.293 246.4 247.4C242.587 241.507 240.507 235.787 240.16 230.24C237.387 210.133 233.92 186.733 229.76 160.04C225.947 133 220.747 101.107 214.16 64.36C203.76 84.12 193.533 103.707 183.48 123.12C173.427 142.533 163.373 161.947 153.32 181.36C147.08 193.493 140.667 199.56 134.08 199.56C124.373 199.56 116.747 194.533 111.2 184.48C99.0667 166.8 86.4133 150.333 73.24 135.08C60.4133 119.48 47.0667 104.053 33.2 88.8C32.5067 112.027 32.68 134.907 33.72 157.44C35.1067 179.627 37.36 201.293 40.48 222.44C41.1733 226.253 40.6533 229.72 38.92 232.84C37.5333 235.613 35.9733 237.347 34.24 238.04C29.3867 239.773 24.5333 238.733 19.68 234.92C14.8267 231.107 11.88 226.947 10.84 222.44C7.72 209.96 5.46667 196.093 4.08 180.84C2.69333 165.587 1.65333 150.16 0.96 134.56C0.613334 118.96 0.440001 103.533 0.440001 88.28C0.440001 73.0267 0.613334 59.16 0.96 46.68C0.96 32.8133 5.46667 25.88 14.48 25.88C20.0267 25.88 24.7067 27.96 28.52 32.12C32.3333 35.9333 34.4133 41.48 34.76 48.76C52.0933 66.0933 68.3867 83.9467 83.64 102.32C99.24 120.347 114.32 138.72 128.88 157.44C141.013 135.6 153.32 113.24 165.8 90.36C178.28 67.1333 192.32 44.6 207.92 22.76C208.613 18.9467 210.52 15.1333 213.64 11.32C216.76 7.15998 220.227 4.38664 224.04 2.99998C227.853 1.61331 231.84 3.17331 236 7.67998C240.16 12.1866 242.933 17.3867 244.32 23.28C250.213 58.2933 255.24 93.3067 259.4 128.32C263.907 163.333 268.24 198.347 272.4 233.36C273.093 239.947 271.88 245.493 268.76 250C265.64 254.16 262.173 256.24 258.36 256.24Z" fill="#B983FF"/>
</svg>
